<svg width="206" height="205" viewBox="0 0 206 205" fill="none" xmlns="http://www.w3.org/2000/svg">
<g clip-path="url(#clip0_1_60)">
<path d="M205.5 156.784H0.5V156.886H205.5V156.784Z" fill="#EBEBEB"/>
<path d="M129.925 159.576H119.486V159.679H129.925V159.576Z" fill="#EBEBEB"/>
<path d="M187.23 161.794H162.495V161.897H187.23V161.794Z" fill="#EBEBEB"/>
<path d="M117.264 159.625H91.7085V159.728H117.264V159.625Z" fill="#EBEBEB"/>
<path d="M75.1364 162.692H69.79V162.795H75.1364V162.692Z" fill="#EBEBEB"/>
<path d="M104.677 162.692H80.3311V162.795H104.677V162.692Z" fill="#EBEBEB"/>
<path d="M37.7733 160.962H22.0088V161.064H37.7733V160.962Z" fill="#EBEBEB"/>
<path d="M97.6699 138.498H18.503C17.8828 138.497 17.2884 138.25 16.8503 137.811C16.4121 137.372 16.166 136.777 16.166 136.157V24.8706C16.1714 24.254 16.4199 23.6644 16.8575 23.2299C17.295 22.7954 17.8864 22.5511 18.503 22.55H97.6699C98.2908 22.55 98.8863 22.7967 99.3253 23.2357C99.7644 23.6748 100.011 24.2703 100.011 24.8911V136.157C100.011 136.778 99.7644 137.373 99.3253 137.812C98.8863 138.251 98.2908 138.498 97.6699 138.498ZM18.503 22.632C17.91 22.6331 17.3417 22.8695 16.9227 23.2892C16.5038 23.7089 16.2685 24.2776 16.2685 24.8706V136.157C16.2685 136.75 16.5038 137.319 16.9227 137.738C17.3417 138.158 17.91 138.394 18.503 138.396H97.6699C98.2633 138.394 98.8321 138.158 99.2517 137.739C99.6712 137.319 99.9074 136.75 99.9085 136.157V24.8706C99.9074 24.2773 99.6712 23.7085 99.2517 23.2889C98.8321 22.8693 98.2633 22.6331 97.6699 22.632H18.503Z" fill="#EBEBEB"/>
<path d="M186.357 138.498H107.186C106.566 138.497 105.971 138.25 105.532 137.811C105.093 137.372 104.846 136.778 104.845 136.157V24.8706C104.852 24.2536 105.101 23.6641 105.539 23.2297C105.978 22.7953 106.569 22.5511 107.186 22.55H186.357C186.973 22.5522 187.564 22.797 188 23.2314C188.437 23.6657 188.685 24.2547 188.69 24.8706V136.157C188.69 136.776 188.445 137.371 188.007 137.809C187.57 138.248 186.977 138.496 186.357 138.498ZM107.186 22.632C106.593 22.6331 106.024 22.8693 105.605 23.2889C105.185 23.7085 104.949 24.2773 104.948 24.8706V136.157C104.949 136.75 105.185 137.319 105.605 137.739C106.024 138.158 106.593 138.394 107.186 138.396H186.357C186.951 138.394 187.519 138.158 187.939 137.739C188.359 137.319 188.595 136.75 188.596 136.157V24.8706C188.595 24.2773 188.359 23.7085 187.939 23.2889C187.519 22.8693 186.951 22.6331 186.357 22.632H107.186Z" fill="#EBEBEB"/>
<path d="M80.8436 121.225H53.6196L51.9673 102.16H79.1913L80.8436 121.225Z" fill="#E6E6E6"/>
<path d="M82.2542 121.225H55.0302L53.3779 102.16H80.6019L82.2542 121.225Z" fill="#F0F0F0"/>
<path d="M58.753 117.129L57.8428 106.251H76.8791L77.7893 117.129H58.753Z" fill="white"/>
<path d="M86.9649 121.225H83.771V156.784H86.9649V121.225Z" fill="#E6E6E6"/>
<path d="M87.9735 121.225H85.7554V156.784H87.9735V121.225Z" fill="#F0F0F0"/>
<path d="M57.0555 125.148H87.9736V121.225H57.0555V125.148Z" fill="#F0F0F0"/>
<path d="M58.1461 125.148H54.9521V156.784H58.1461V125.148Z" fill="#E6E6E6"/>
<path d="M59.1546 125.148H56.9365V156.784H59.1546V125.148Z" fill="#F0F0F0"/>
<path d="M35.4117 125.148H32.2178V156.784H35.4117V125.148Z" fill="#E6E6E6"/>
<path d="M36.4202 125.148H34.2021V156.784H36.4202V125.148Z" fill="#F0F0F0"/>
<path d="M66.752 125.148H63.5581V156.784H66.752V125.148Z" fill="#E6E6E6"/>
<path d="M67.7562 125.148H65.5381V156.784H67.7562V125.148Z" fill="#F0F0F0"/>
<path d="M57.0556 121.225H32.2178V125.149H57.0556V121.225Z" fill="#E6E6E6"/>
<path d="M149.674 32.5581H53.5991V86.0467H149.674V32.5581Z" fill="#E0E0E0"/>
<path d="M154.951 32.5581H54.083V86.0467H154.951V32.5581Z" fill="#F5F5F5"/>
<path d="M153.303 84.3985V34.2063L55.7309 34.2063V84.3985H153.303Z" fill="white"/>
<path d="M95.2389 84.3985L113.66 34.2063H83.2587L64.8374 84.3985H95.2389Z" fill="#F5F5F5"/>
<path d="M124.5 84.3985L142.922 34.2063H119.986L101.565 84.3985H124.5Z" fill="#F5F5F5"/>
<path d="M180.125 105.698H171.958V156.784H180.125V105.698Z" fill="#E6E6E6"/>
<path d="M177.976 156.784H180.125V152.852H175.726L177.976 156.784Z" fill="#FAFAFA"/>
<path d="M104.824 105.698H96.6572V156.784H104.824V105.698Z" fill="#E6E6E6"/>
<path d="M180.125 105.698H102.951V155.722H180.125V105.698Z" fill="#FAFAFA"/>
<path d="M178.666 121.84H104.415V107.711H178.666V121.84ZM104.825 121.43H178.256V108.121H104.825V121.43Z" fill="#E6E6E6"/>
<path d="M165.595 114.571H118.924C116.76 114.571 114.673 112.824 113.184 109.774L113.045 109.482H171.47L171.331 109.774C169.83 112.824 167.78 114.571 165.595 114.571ZM113.717 109.88C115.103 112.598 116.997 114.148 118.924 114.148H165.595C167.53 114.148 169.416 112.598 170.802 109.88H113.717Z" fill="#E6E6E6"/>
<path d="M105.099 156.784H102.951V152.852H107.35L105.099 156.784Z" fill="#FAFAFA"/>
<path d="M178.666 137.76H104.415V123.648H178.666V137.76ZM104.825 137.35H178.256V124.058H104.825V137.35Z" fill="#E6E6E6"/>
<path d="M165.595 130.507H118.924C116.76 130.507 114.673 128.757 113.184 125.71L113.045 125.415H171.47L171.331 125.71C169.83 128.74 167.78 130.507 165.595 130.507ZM113.717 125.825C115.103 128.543 116.997 130.097 118.924 130.097H165.595C167.53 130.097 169.416 128.543 170.802 125.825H113.717Z" fill="#E6E6E6"/>
<path d="M178.666 153.709H104.415V139.581H178.666V153.709ZM104.825 153.299H178.256V139.991H104.825V153.299Z" fill="#E6E6E6"/>
<path d="M165.595 146.44H118.924C116.76 146.44 114.673 144.693 113.184 141.647L113.045 141.352H171.47L171.331 141.647C169.83 144.693 167.78 146.44 165.595 146.44ZM113.717 141.762C115.103 144.48 116.997 146.03 118.924 146.03H165.595C167.53 146.03 169.416 144.48 170.802 141.762H113.717Z" fill="#E6E6E6"/>
<path d="M50.1017 112.455V113.447H49.4703L48.9455 121.225H41.2211L40.7004 113.447H40.0649V112.455H50.1017Z" fill="#E6E6E6"/>
<path d="M47.5599 93.1561C46.9285 88.5231 40.676 87.2029 32.7425 87.0307C25.1944 86.8708 22.7754 84.2017 22.7754 84.2017C22.7754 84.2017 22.8 95.0134 33.6773 98.933C44.0052 102.648 48.1954 97.7973 47.5599 93.1561Z" fill="#E6E6E6"/>
<path d="M43.706 103.656C43.8372 101.754 46.8794 98.2524 54.1979 99.8432C59.4869 100.995 61.4549 98.2524 61.4549 98.2524C61.4549 98.2524 60.9629 105.993 53.0089 108.318C45.4526 110.528 43.4723 107.01 43.706 103.656Z" fill="#E6E6E6"/>
<path d="M45.3746 115.374C45.4158 115.374 45.4566 115.366 45.4941 115.349C45.5316 115.332 45.565 115.307 45.5919 115.276C46.1208 114.648 45.6862 113.148 45.0876 111.069C44.3168 108.404 43.3574 105.083 44.1692 102.676C44.6191 101.405 45.1449 100.162 45.7436 98.9535C46.8916 96.5263 47.8838 94.4434 47.0556 92.2376C47.0427 92.2026 47.0229 92.1704 46.9975 92.143C46.972 92.1156 46.9414 92.0935 46.9074 92.0779C46.8734 92.0624 46.8366 92.0538 46.7992 92.0526C46.7618 92.0514 46.7246 92.0576 46.6896 92.0709C46.6547 92.0842 46.6227 92.1043 46.5956 92.13C46.5684 92.1557 46.5466 92.1866 46.5315 92.2207C46.5163 92.2549 46.5081 92.2918 46.5073 92.3292C46.5064 92.3665 46.513 92.4037 46.5267 92.4386C47.2688 94.4025 46.3709 96.3049 45.2311 98.7157C44.6248 99.9434 44.0909 101.206 43.6321 102.496C42.767 105.071 43.751 108.486 44.5423 111.225C45.0097 112.865 45.4935 114.505 45.1614 114.915C45.135 114.943 45.1148 114.977 45.1021 115.013C45.0894 115.05 45.0844 115.088 45.0875 115.127C45.0906 115.166 45.1017 115.203 45.12 115.237C45.1384 115.271 45.1636 115.301 45.1942 115.325C45.2465 115.362 45.3105 115.38 45.3746 115.374Z" fill="#E6E6E6"/>
<path d="M103 175.299C146.904 175.299 182.495 173.222 182.495 170.658C182.495 168.095 146.904 166.017 103 166.017C59.096 166.017 23.5049 168.095 23.5049 170.658C23.5049 173.222 59.096 175.299 103 175.299Z" fill="#F5F5F5"/>
<path d="M102.984 148.031H44.7638L41.5781 54.3989H99.7981L102.984 148.031Z" fill="#12518B"/>
<path d="M105.891 145.124H47.6708L44.481 51.4919H102.701L105.891 145.124Z" fill="#12518B"/>
<path opacity="0.3" d="M105.891 145.124H47.6708L44.481 51.4919H102.701L105.891 145.124Z" fill="white"/>
<path d="M86.384 90.0212C92.6177 83.6799 92.3525 73.3109 85.7917 66.8613C79.2308 60.4117 68.8587 60.3239 62.625 66.6651C56.3913 73.0064 56.6565 83.3754 63.2174 89.825C69.7783 96.2746 80.1503 96.3624 86.384 90.0212Z" fill="#12518B"/>
<path d="M88.0228 78.347C88.1067 80.5781 87.6198 82.7936 86.6083 84.784C85.5166 86.9289 83.8488 88.7273 81.7921 89.9772C79.7354 91.2272 77.371 91.8794 74.9643 91.8606C72.501 91.8473 70.0846 91.1865 67.9574 89.9444C65.8301 88.7023 64.067 86.9227 62.8447 84.784C61.705 82.8242 61.0684 80.6127 60.9915 78.347C60.9159 76.5902 61.1982 74.8363 61.8214 73.192C62.4445 71.5477 63.3954 70.0472 64.6164 68.7817C65.8374 67.5163 67.3029 66.5123 68.9239 65.8307C70.5449 65.1491 72.2875 64.8042 74.0459 64.817C77.6684 64.8426 81.1417 66.2627 83.7445 68.7823C86.3473 71.3019 87.8795 74.7273 88.0228 78.347Z" fill="white"/>
<path opacity="0.6" d="M86.6 84.784C85.5083 86.9289 83.8406 88.7273 81.7838 89.9772C79.7271 91.2272 77.3627 91.8794 74.956 91.8606C72.4928 91.8473 70.0763 91.1865 67.9491 89.9444C65.8219 88.7023 64.0587 86.9227 62.8364 84.784C66.3039 82.42 70.4068 81.1633 74.6034 81.1801C78.8677 81.1893 83.0367 82.4417 86.6 84.784Z" fill="#12518B"/>
<path opacity="0.6" d="M78.7169 78.0098C81.0091 75.678 80.9116 71.8652 78.4991 69.4937C76.0866 67.1221 72.2727 67.0898 69.9805 69.4216C67.6883 71.7533 67.7858 75.5661 70.1983 77.9377C72.6108 80.3092 76.4247 80.3415 78.7169 78.0098Z" fill="#12518B"/>
<path d="M94.1936 111.217H57.0558L56.8057 103.837H93.9435L94.1936 111.217Z" fill="white"/>
<path d="M94.6444 124.406H57.5025L57.2524 117.026H94.3943L94.6444 124.406Z" fill="white"/>
<path d="M80.311 118.043L71.3607 119.273C71.2753 119.283 71.1929 119.31 71.1185 119.353C71.0442 119.396 70.9796 119.454 70.9288 119.524C70.8779 119.593 70.842 119.672 70.8232 119.756C70.8044 119.84 70.8031 119.927 70.8195 120.011L71.9962 126.009C72.0347 126.185 72.1377 126.341 72.2849 126.445C72.4321 126.549 72.6129 126.594 72.7916 126.571L81.7419 125.341C81.8271 125.33 81.9092 125.302 81.9831 125.258C82.057 125.215 82.1211 125.156 82.1714 125.087C82.2218 125.017 82.2573 124.938 82.2758 124.854C82.2943 124.77 82.2954 124.683 82.279 124.599L81.1064 118.601C81.0679 118.425 80.9648 118.27 80.8174 118.167C80.6701 118.064 80.4894 118.019 80.311 118.043ZM77.7403 124.119L76.1003 124.337L75.9404 122.401C75.7715 122.328 75.6225 122.216 75.5062 122.073C75.3899 121.93 75.3096 121.762 75.2721 121.581C75.242 121.442 75.2415 121.297 75.2707 121.158C75.2999 121.018 75.3581 120.886 75.4416 120.77C75.5251 120.654 75.6319 120.557 75.7553 120.485C75.8786 120.412 76.0158 120.367 76.1577 120.351C76.4489 120.314 76.7436 120.387 76.9835 120.556C77.2234 120.726 77.3911 120.979 77.4533 121.266C77.4889 121.439 77.478 121.619 77.4219 121.786C77.3657 121.954 77.2662 122.104 77.1335 122.221L77.7403 124.119Z" fill="#12518B"/>
<path d="M79.4254 117.719C79.2672 117.739 79.1071 117.7 78.9766 117.608C78.8462 117.516 78.7547 117.379 78.7202 117.223L78.6054 116.637C78.4415 115.837 77.9931 115.123 77.3432 114.629C76.6933 114.134 75.886 113.892 75.0712 113.947C74.66 113.971 74.2587 114.082 73.8945 114.275C73.5303 114.467 73.2117 114.735 72.9605 115.062C72.7092 115.388 72.5311 115.765 72.4383 116.166C72.3455 116.567 72.3401 116.984 72.4226 117.387L72.5538 118.064C72.5691 118.139 72.5685 118.216 72.5522 118.291C72.5359 118.365 72.5041 118.436 72.4589 118.498C72.4138 118.559 72.3562 118.611 72.29 118.649C72.2237 118.688 72.1502 118.711 72.0741 118.72C71.9156 118.742 71.7546 118.703 71.6236 118.611C71.4927 118.519 71.4017 118.38 71.3689 118.224L71.2582 117.654C71.1456 117.121 71.1419 116.571 71.2472 116.037C71.3526 115.503 71.5648 114.996 71.8712 114.546C72.1776 114.096 72.5717 113.712 73.0301 113.418C73.4884 113.125 74.0014 112.927 74.5382 112.836C75.7022 112.641 76.8967 112.901 77.8739 113.563C78.8511 114.225 79.5359 115.237 79.7862 116.391L79.9174 117.063C79.9327 117.139 79.9318 117.217 79.9147 117.293C79.8976 117.368 79.8648 117.44 79.8184 117.501C79.7719 117.563 79.7129 117.615 79.6452 117.652C79.5774 117.69 79.5025 117.713 79.4254 117.719Z" fill="#12518B"/>
<path d="M88.5148 134.742H64.3371L64.1772 129.937H88.3508L88.5148 134.742Z" fill="#12518B"/>
<path d="M76.8505 107.527C76.8577 107.702 76.8292 107.877 76.7668 108.041C76.7045 108.205 76.6094 108.354 76.4875 108.48C76.3656 108.607 76.2194 108.707 76.0576 108.775C75.8959 108.842 75.7221 108.877 75.5467 108.876C75.1851 108.873 74.8385 108.731 74.5783 108.48C74.3182 108.229 74.1643 107.888 74.1486 107.527C74.1413 107.351 74.1698 107.177 74.2322 107.013C74.2946 106.849 74.3896 106.699 74.5115 106.573C74.6334 106.447 74.7797 106.347 74.9414 106.279C75.1031 106.211 75.2769 106.177 75.4524 106.178C75.8142 106.18 76.1614 106.321 76.4218 106.572C76.6822 106.823 76.8357 107.165 76.8505 107.527Z" fill="#263238"/>
<path d="M71.0202 107.527C71.028 107.702 71 107.877 70.9378 108.041C70.8756 108.206 70.7806 108.355 70.6586 108.482C70.5366 108.608 70.3901 108.708 70.2281 108.776C70.0661 108.843 69.892 108.877 69.7164 108.876C69.3553 108.873 69.0091 108.731 68.7496 108.48C68.4901 108.229 68.3371 107.887 68.3224 107.527C68.3152 107.351 68.3436 107.177 68.406 107.013C68.4684 106.849 68.5634 106.699 68.6853 106.573C68.8072 106.447 68.9535 106.347 69.1152 106.279C69.2769 106.211 69.4508 106.177 69.6262 106.178C69.9876 106.18 70.3343 106.321 70.5941 106.572C70.8538 106.824 71.0065 107.166 71.0202 107.527Z" fill="#263238"/>
<path d="M65.2267 107.527C65.234 107.702 65.2055 107.877 65.1431 108.041C65.0807 108.205 64.9857 108.354 64.8638 108.48C64.7419 108.607 64.5956 108.707 64.4339 108.775C64.2722 108.842 64.0983 108.877 63.9229 108.876C63.5615 108.874 63.2148 108.732 62.9551 108.481C62.6953 108.23 62.5427 107.888 62.5289 107.527C62.5217 107.351 62.5502 107.177 62.6125 107.013C62.6749 106.849 62.77 106.699 62.8919 106.573C63.0138 106.447 63.16 106.347 63.3218 106.279C63.4835 106.211 63.6573 106.177 63.8327 106.178C64.1941 106.18 64.5409 106.321 64.8006 106.572C65.0603 106.824 65.213 107.166 65.2267 107.527Z" fill="#263238"/>
<path d="M82.66 107.527C82.6672 107.702 82.6388 107.877 82.5764 108.041C82.514 108.205 82.419 108.354 82.2971 108.48C82.1752 108.607 82.0289 108.707 81.8672 108.775C81.7055 108.842 81.5316 108.877 81.3562 108.876C80.9948 108.874 80.6481 108.732 80.3883 108.481C80.1286 108.23 79.976 107.888 79.9622 107.527C79.9561 107.352 79.9855 107.178 80.0487 107.015C80.1119 106.852 80.2075 106.703 80.3298 106.578C80.4521 106.453 80.5985 106.354 80.7602 106.288C80.9218 106.221 81.0953 106.188 81.2701 106.19C81.6288 106.193 81.9728 106.333 82.2313 106.582C82.4898 106.83 82.6432 107.168 82.66 107.527Z" fill="#263238"/>
<path d="M88.4699 107.527C88.4777 107.702 88.4497 107.877 88.3875 108.041C88.3253 108.206 88.2303 108.355 88.1083 108.482C87.9863 108.608 87.8398 108.708 87.6778 108.776C87.5158 108.843 87.3417 108.877 87.1661 108.876C86.805 108.873 86.4588 108.731 86.1993 108.48C85.9398 108.229 85.7868 107.887 85.7721 107.527C85.7649 107.351 85.7933 107.177 85.8557 107.013C85.9181 106.849 86.0131 106.699 86.135 106.573C86.2569 106.447 86.4032 106.347 86.5649 106.279C86.7266 106.211 86.9005 106.177 87.0759 106.178C87.4373 106.18 87.7841 106.321 88.0438 106.572C88.3035 106.824 88.4562 107.166 88.4699 107.527Z" fill="#263238"/>
<path d="M137.403 71.4546C137.948 72.332 138.403 73.1684 138.871 74.0417C139.338 74.915 139.76 75.7924 140.175 76.6903C141.019 78.5084 141.719 80.3908 142.266 82.3196C142.339 82.5615 142.393 82.8198 142.454 83.0699L142.544 83.4512L142.589 83.6398L142.643 83.9514C142.735 84.6583 142.692 85.3763 142.516 86.067C142.233 87.1394 141.802 88.1674 141.236 89.1215C140.225 90.8553 139.002 92.457 137.596 93.8898L135.87 92.586C136.736 90.9933 137.507 89.3504 138.178 87.666C138.477 86.9238 138.687 86.1491 138.805 85.3577C138.843 85.116 138.832 84.8693 138.772 84.632L138.608 84.1318C138.543 83.9268 138.481 83.7218 138.403 83.5127C137.78 81.8213 137.058 80.1675 136.243 78.5599C135.423 76.9199 134.541 75.2799 133.66 73.7137L137.403 71.4546Z" fill="#FF8B7B"/>
<path d="M136.308 92.0161L134.422 93.0124L136.587 95.5462C136.587 95.5462 137.94 94.6319 138.002 93.2379L136.308 92.0161Z" fill="#FF8B7B"/>
<path d="M131.893 94.5746L134.209 96.4155L136.587 95.5462L134.422 93.0125L131.893 94.5746Z" fill="#FF8B7B"/>
<path d="M123.972 58.0396C123.927 58.2692 123.767 58.4291 123.619 58.4004C123.471 58.3717 123.385 58.1585 123.43 57.933C123.476 57.7075 123.635 57.523 123.787 57.5722C123.939 57.6214 124.017 57.81 123.972 58.0396Z" fill="#263238"/>
<path d="M123.787 58.4331C123.374 59.0753 122.875 59.6575 122.303 60.1633C122.438 60.3033 122.602 60.4124 122.783 60.4832C122.964 60.5539 123.158 60.5847 123.352 60.5733L123.787 58.4331Z" fill="#FF5652"/>
<path d="M123.049 66.4772V63.7876L126.608 64.1976C126.608 64.1976 126.55 66.51 124.558 67.1906L123.049 66.4772Z" fill="#FF8B7B"/>
<path d="M124.074 61.8525L126.579 62.5741L126.624 64.2182L123.065 63.7877L124.074 61.8525Z" fill="#FF8B7B"/>
<path opacity="0.2" d="M126.579 62.5741L124.074 61.8525L123.586 62.7873C123.613 63.5239 123.843 64.2387 124.251 64.8524C124.659 65.4662 125.229 65.9548 125.898 66.2641C126.329 65.6629 126.58 64.9522 126.624 64.2141L126.579 62.5741Z" fill="black"/>
<path d="M125.062 56.9447C125.088 56.944 125.114 56.9359 125.136 56.9213C125.158 56.9067 125.175 56.8862 125.186 56.8622C125.196 56.8382 125.2 56.8117 125.196 56.7856C125.193 56.7596 125.182 56.7352 125.165 56.7151C125.021 56.5525 124.84 56.4267 124.637 56.3482C124.435 56.2698 124.216 56.2409 124 56.2641C123.965 56.2701 123.933 56.2899 123.913 56.3191C123.892 56.3483 123.884 56.3846 123.89 56.4199C123.896 56.4555 123.915 56.4874 123.944 56.5088C123.973 56.5302 124.01 56.5395 124.045 56.5347C124.216 56.5179 124.389 56.5423 124.549 56.6058C124.709 56.6692 124.851 56.77 124.964 56.8996C124.976 56.9133 124.992 56.9244 125.008 56.9321C125.025 56.9399 125.044 56.9442 125.062 56.9447Z" fill="#263238"/>
<path d="M130.302 62.1887C129.892 64.3002 129.638 67.2235 131.122 68.6298C131.122 68.6298 130.548 70.77 126.612 70.77C122.303 70.77 124.541 68.8922 124.541 68.8922C126.333 68.3346 126.317 66.2969 125.907 64.6569L130.302 62.1887Z" fill="#FF8B7B"/>
<path d="M131.922 70.0402C132.307 69.499 132.291 67.7811 131.881 67.4777C131.22 66.9898 128.387 66.875 124.578 67.7524C124.988 69.417 124.107 70.2862 124.107 70.2862L131.922 70.0402Z" fill="#12518B"/>
<path d="M144.738 167.378C144.621 167.42 144.497 167.437 144.373 167.43C144.249 167.423 144.128 167.392 144.017 167.337C143.974 167.298 143.945 167.247 143.934 167.19C143.922 167.133 143.928 167.075 143.951 167.022C143.964 166.977 143.986 166.936 144.017 166.902C144.047 166.867 144.085 166.839 144.127 166.821C144.517 166.632 145.411 166.997 145.452 167.014C145.464 167.018 145.474 167.027 145.482 167.038C145.489 167.049 145.493 167.062 145.493 167.075C145.493 167.088 145.489 167.101 145.483 167.113C145.476 167.124 145.467 167.134 145.456 167.141C145.225 167.242 144.984 167.322 144.738 167.378ZM144.267 166.915C144.24 166.922 144.214 166.931 144.189 166.944C144.163 166.953 144.14 166.968 144.122 166.988C144.103 167.008 144.09 167.032 144.082 167.059C144.045 167.182 144.082 167.223 144.107 167.235C144.263 167.366 144.837 167.235 145.243 167.083C144.934 166.955 144.6 166.898 144.267 166.915Z" fill="#12518B"/>
<path d="M145.439 167.145H145.406C145.078 167.05 144.381 166.554 144.373 166.23C144.373 166.179 144.39 166.129 144.422 166.089C144.454 166.048 144.499 166.02 144.549 166.009C144.598 165.991 144.65 165.984 144.702 165.988C144.753 165.992 144.804 166.008 144.849 166.034C145.234 166.23 145.48 167.026 145.488 167.063C145.494 167.073 145.497 167.084 145.497 167.095C145.497 167.107 145.494 167.118 145.488 167.128C145.482 167.135 145.474 167.139 145.466 167.142C145.457 167.145 145.448 167.146 145.439 167.145ZM144.619 166.124H144.586C144.504 166.152 144.504 166.193 144.504 166.214C144.504 166.407 144.972 166.796 145.324 166.952C145.238 166.722 145.05 166.267 144.799 166.132C144.744 166.107 144.681 166.104 144.623 166.124H144.619Z" fill="#12518B"/>
<path d="M123.443 167.862C123.074 167.862 122.717 167.809 122.598 167.645C122.567 167.601 122.55 167.549 122.55 167.495C122.55 167.441 122.567 167.389 122.598 167.345C122.621 167.305 122.653 167.27 122.69 167.243C122.728 167.215 122.77 167.196 122.815 167.185C123.295 167.054 124.304 167.628 124.345 167.653C124.357 167.659 124.367 167.669 124.373 167.682C124.379 167.695 124.381 167.709 124.377 167.723C124.376 167.737 124.37 167.75 124.36 167.76C124.351 167.77 124.338 167.777 124.324 167.78C124.033 167.833 123.738 167.861 123.443 167.862ZM122.988 167.3C122.944 167.293 122.9 167.293 122.856 167.3C122.829 167.306 122.802 167.317 122.779 167.334C122.756 167.35 122.736 167.371 122.721 167.395C122.672 167.481 122.692 167.522 122.721 167.546C122.856 167.735 123.582 167.739 124.119 167.661C123.769 167.469 123.384 167.347 122.988 167.3Z" fill="#12518B"/>
<path d="M124.32 167.78H124.291C123.943 167.624 123.254 167.001 123.307 166.673C123.307 166.595 123.373 166.501 123.561 166.485C123.629 166.477 123.697 166.483 123.762 166.503C123.827 166.522 123.887 166.555 123.939 166.599C124.201 166.914 124.359 167.302 124.39 167.71C124.389 167.722 124.387 167.734 124.382 167.744C124.377 167.755 124.37 167.764 124.361 167.772C124.348 167.778 124.334 167.781 124.32 167.78ZM123.615 166.612H123.574C123.451 166.612 123.442 166.669 123.442 166.685C123.41 166.882 123.877 167.374 124.234 167.587C124.202 167.258 124.069 166.947 123.852 166.698C123.785 166.64 123.699 166.61 123.611 166.612H123.615Z" fill="#12518B"/>
<path d="M127.485 167.715H124.603L124.316 161.036H127.198L127.485 167.715Z" fill="#FF8B7B"/>
<path d="M148.654 166.378L145.837 166.989L143.004 160.769L145.825 160.158L148.654 166.378Z" fill="#FF8B7B"/>
<path d="M145.562 166.706L148.732 166.021C148.787 166.01 148.845 166.017 148.895 166.042C148.946 166.068 148.986 166.109 149.01 166.161L150.109 168.547C150.138 168.605 150.154 168.669 150.153 168.733C150.153 168.798 150.138 168.862 150.108 168.919C150.078 168.977 150.036 169.027 149.983 169.065C149.93 169.103 149.87 169.127 149.806 169.137C148.699 169.355 148.145 169.408 146.755 169.707C145.898 169.896 143.963 170.367 142.778 170.622C141.593 170.876 141.188 169.74 141.651 169.531C143.721 168.584 144.582 167.752 145.144 166.977C145.246 166.838 145.394 166.742 145.562 166.706Z" fill="#263238"/>
<path d="M124.623 167.378H127.772C127.829 167.379 127.885 167.398 127.929 167.434C127.974 167.47 128.005 167.52 128.018 167.575L128.588 170.138C128.605 170.2 128.607 170.265 128.594 170.327C128.581 170.39 128.553 170.449 128.513 170.499C128.474 170.55 128.422 170.59 128.364 170.617C128.306 170.644 128.242 170.657 128.178 170.654C127.042 170.634 125.402 170.568 123.976 170.568C122.303 170.568 120.864 170.658 118.904 170.658C117.719 170.658 117.391 169.461 117.887 169.351C120.142 168.859 121.987 168.805 123.935 167.604C124.139 167.467 124.378 167.389 124.623 167.378Z" fill="#263238"/>
<path d="M136.279 69.2898C138.981 69.9089 141.199 76.8092 141.199 76.8092L135.8 80.9379C134.398 79.4394 133.409 77.6029 132.93 75.6079C131.974 71.9917 133.516 68.6502 136.279 69.2898Z" fill="#12518B"/>
<path opacity="0.4" d="M136.279 69.2898C138.981 69.9089 141.199 76.8092 141.199 76.8092L135.8 80.9379C134.398 79.4394 133.409 77.6029 132.93 75.6079C131.974 71.9917 133.516 68.6502 136.279 69.2898Z" fill="black"/>
<path d="M122.065 77.5187C121.393 78.2444 120.72 78.8922 120.015 79.5687C119.667 79.8967 119.314 80.2247 118.953 80.5404L118.408 81.0201L118.273 81.139L118.039 81.3276C117.798 81.5197 117.532 81.6771 117.248 81.795C116.931 81.9293 116.591 81.999 116.247 82C115.953 82.0012 115.662 81.9498 115.386 81.8483C115.08 81.7318 114.802 81.5547 114.566 81.3276C114.266 81.034 114.046 80.6684 113.927 80.2657C113.864 80.0671 113.824 79.8622 113.808 79.6548C113.786 79.412 113.786 79.1678 113.808 78.925C113.828 78.7282 113.853 78.556 113.886 78.3961C113.998 77.837 114.157 77.2884 114.361 76.7561C114.546 76.2501 114.758 75.7546 114.997 75.2719C115.259 74.7512 115.509 74.3699 115.759 73.9353C116.775 72.2712 117.934 70.699 119.224 69.2367C120.5 67.783 121.907 66.449 123.426 65.2515L124.935 66.8054C123.877 68.224 122.836 69.7451 121.872 71.2416C120.913 72.7296 120.037 74.2694 119.248 75.8541C119.072 76.2395 118.838 76.6741 118.728 76.9857C118.581 77.3476 118.454 77.7172 118.346 78.0927C118.243 78.4308 118.165 78.7762 118.113 79.1259C118.11 79.1805 118.11 79.2352 118.113 79.2899C118.113 79.3227 118.113 79.3391 118.113 79.253C118.106 79.1609 118.088 79.0701 118.059 78.9824C117.971 78.6917 117.808 78.429 117.588 78.2198C117.392 78.0396 117.162 77.9002 116.911 77.8098C116.691 77.7264 116.458 77.6833 116.223 77.6827C115.996 77.6799 115.772 77.7232 115.562 77.8098C115.492 77.8387 115.423 77.873 115.357 77.9123L115.513 77.7688L116.009 77.3178L116.989 76.3994C117.637 75.7885 118.289 75.1366 118.904 74.5298L122.065 77.5187Z" fill="#FF8B7B"/>
<path opacity="0.2" d="M133.963 74.3574C135.431 75.8088 135.911 78.4574 136.013 80.7534L135.776 80.9379C134.374 79.4394 133.385 77.6029 132.906 75.6079C132.852 75.3947 132.803 75.1979 132.766 74.9642L133.963 74.3574Z" fill="black"/>
<path d="M119.199 72.1598C118.609 75.2758 118.24 81.6759 119.949 94.3449H135.39C135.497 91.9792 134.008 80.4254 136.292 69.2693C134.586 68.9417 132.86 68.7239 131.126 68.6174C128.941 68.4921 126.751 68.4921 124.566 68.6174C123.844 68.683 123.131 68.7896 122.516 68.9003C121.698 69.0438 120.943 69.4323 120.351 70.0143C119.758 70.5964 119.357 71.3445 119.199 72.1598Z" fill="#12518B"/>
<path opacity="0.4" d="M119.199 72.1598C118.609 75.2758 118.24 81.6759 119.949 94.3449H135.39C135.497 91.9792 134.008 80.4254 136.292 69.2693C134.586 68.9417 132.86 68.7239 131.126 68.6174C128.941 68.4921 126.751 68.4921 124.566 68.6174C123.844 68.683 123.131 68.7896 122.516 68.9003C121.698 69.0438 120.943 69.4323 120.351 70.0143C119.758 70.5964 119.357 71.3445 119.199 72.1598Z" fill="black"/>
<path opacity="0.2" d="M121.561 76.7806L118.773 76.1123C118.687 77.8015 118.678 79.8925 118.801 82.4796C120.085 81.02 121.725 78.7404 121.561 76.7806Z" fill="black"/>
<path opacity="0.2" d="M124.316 161.036L124.464 164.48H127.35L127.202 161.036H124.316Z" fill="black"/>
<path opacity="0.2" d="M145.825 160.158L143.004 160.769L144.464 163.975L147.284 163.364L145.825 160.158Z" fill="black"/>
<path d="M131.671 59.1054C130.933 61.8688 130.638 63.5252 128.933 64.6732C126.37 66.4198 123.172 64.419 123.09 61.4998C123 58.8635 124.226 54.784 127.19 54.2264C127.841 54.1041 128.513 54.1498 129.142 54.359C129.771 54.5682 130.336 54.9342 130.785 55.4223C131.233 55.9104 131.55 56.5047 131.705 57.1491C131.86 57.7934 131.848 58.4667 131.671 59.1054Z" fill="#FF8B7B"/>
<path d="M125.202 59.2081C125.062 58.8391 124.427 55.9814 125.025 55.2393C125.624 54.4972 132.451 55.0343 133.459 56.0265C135.136 57.6665 133.972 59.1425 132.139 61.0408C130.761 62.4676 130.708 64.0748 130.011 64.3208C128.781 64.7308 126.903 64.3454 126.526 63.0457C126.149 61.746 125.202 59.2081 125.202 59.2081Z" fill="#263238"/>
<path d="M132.631 52.7751C130.22 51.7501 125.698 52.8858 123.254 52.2954C123.223 53.204 123.522 54.0932 124.095 54.7986C124.669 55.5041 125.478 55.9781 126.374 56.133C128.401 56.5193 130.461 56.7102 132.524 56.7029C135.206 56.5799 134.681 53.6484 132.631 52.7751Z" fill="#263238"/>
<path d="M133.008 56.1124C133.888 56.1991 134.775 56.0296 135.562 55.6245C136.013 56.7151 133.533 57.0144 133.008 56.1124Z" fill="#263238"/>
<path d="M126.513 59.3228C126.458 60.0338 126.17 60.7068 125.693 61.2375C125.062 61.9304 124.406 61.4958 124.295 60.6553C124.197 59.8927 124.402 58.6053 125.173 58.2363C125.944 57.8673 126.567 58.4659 126.513 59.3228Z" fill="#FF8B7B"/>
<path d="M125.423 94.3573C125.423 94.3573 128.703 116.395 130.495 124.652C132.458 133.693 143.012 163.602 143.012 163.602L148.174 162.483C148.174 162.483 140.794 138.104 139.154 125.464C137.883 115.755 135.386 94.3491 135.386 94.3491L125.423 94.3573Z" fill="#12518B"/>
<path d="M141.774 161.884C141.753 161.884 142.737 163.754 142.737 163.754L148.543 162.495L148.055 160.749L141.774 161.884Z" fill="#263238"/>
<path opacity="0.3" d="M127.493 102.209C131.278 102.951 130.876 117.063 130.421 124.324C129.33 119.191 127.731 109.318 126.641 102.311C126.905 102.181 127.206 102.145 127.493 102.209Z" fill="black"/>
<path d="M119.949 94.3572C119.949 94.3572 119.539 115.919 119.867 124.697C120.195 133.844 123.389 163.795 123.389 163.795H128.277C128.277 163.795 128.453 134.377 128.687 125.394C128.924 115.603 130.105 94.3408 130.105 94.3408L119.949 94.3572Z" fill="#12518B"/>
<path d="M122.451 161.868C122.426 161.868 122.725 163.893 122.725 163.893H128.666L128.83 162.085L122.451 161.868Z" fill="#263238"/>
<path d="M125.243 73.1194C126.624 76.8463 118.502 81.2374 118.502 81.2374L114.984 76.7274C114.984 76.7274 117.35 72.0452 120.22 69.9378C123.767 67.3384 124.189 70.2822 125.243 73.1194Z" fill="#12518B"/>
<path opacity="0.4" d="M125.243 73.1194C126.624 76.8463 118.502 81.2374 118.502 81.2374L114.984 76.7274C114.984 76.7274 117.35 72.0452 120.22 69.9378C123.767 67.3384 124.189 70.2822 125.243 73.1194Z" fill="black"/>
<path d="M157.066 44.8253C165.239 44.8253 171.863 40.6034 171.863 35.3953C171.863 30.1873 165.239 25.9653 157.066 25.9653C148.894 25.9653 142.27 30.1873 142.27 35.3953C142.27 40.6034 148.894 44.8253 157.066 44.8253Z" fill="#12518B"/>
<path d="M151.728 40.1432C150.754 40.14 149.811 39.7935 149.066 39.1643C148.322 38.5352 147.823 37.6638 147.657 36.7033C147.494 35.6628 147.729 34.5991 148.314 33.7238C148.9 32.8486 149.794 32.226 150.818 31.9801C151.658 31.7864 152.538 31.8611 153.334 32.1935C154.13 32.5259 154.801 33.0994 155.254 33.8333L164.754 31.8735C165.119 31.7935 165.501 31.8542 165.823 32.0435C166.145 32.2327 166.384 32.5366 166.492 32.8944C166.542 33.0825 166.553 33.2787 166.524 33.4712C166.496 33.6636 166.428 33.8482 166.325 34.0136C166.223 34.179 166.088 34.3217 165.928 34.4331C165.769 34.5445 165.588 34.6222 165.398 34.6615L165.152 34.7107C165.115 34.7172 165.081 34.7321 165.051 34.7541C165.021 34.7762 164.997 34.8048 164.98 34.8378C164.964 34.8713 164.956 34.9076 164.956 34.9444C164.956 34.9811 164.964 35.0175 164.98 35.051L165.148 35.4856C165.204 35.6265 165.209 35.7826 165.163 35.927C165.117 36.0714 165.021 36.1952 164.893 36.2769C164.793 36.3392 164.707 36.4236 164.644 36.5238C164.581 36.6239 164.541 36.7372 164.529 36.855C164.516 36.9901 164.462 37.118 164.373 37.2204C164.284 37.3227 164.165 37.3943 164.032 37.4249L163.84 37.4659C163.706 37.4906 163.568 37.4721 163.446 37.4131C163.323 37.3541 163.223 37.2577 163.159 37.1379C163.074 36.9949 162.946 36.882 162.794 36.815C162.642 36.7479 162.472 36.7301 162.309 36.764C162.146 36.7978 161.998 36.8816 161.885 37.0038C161.772 37.1259 161.7 37.2803 161.679 37.4454C161.668 37.5797 161.614 37.7069 161.525 37.8086C161.437 37.9103 161.318 37.9812 161.187 38.0112L160.994 38.0522C160.861 38.0762 160.723 38.0574 160.601 37.9985C160.479 37.9396 160.378 37.8436 160.314 37.7242C160.252 37.6225 160.17 37.5354 160.071 37.4688C159.973 37.4023 159.861 37.3579 159.744 37.3388C159.586 37.3198 159.441 37.2439 159.335 37.1254C159.229 37.0069 159.171 36.8539 159.17 36.6951V36.2277C159.168 36.1911 159.159 36.1553 159.142 36.1228C159.125 36.0903 159.101 36.0617 159.073 36.0392C159.044 36.0166 159.011 36.0005 158.975 35.992C158.939 35.9835 158.902 35.9828 158.866 35.9899L155.836 36.6131C155.713 37.4525 155.334 38.2335 154.75 38.8497C154.167 39.4659 153.408 39.8875 152.577 40.0571C152.298 40.1142 152.013 40.143 151.728 40.1432ZM150.908 32.3532C149.978 32.5704 149.165 33.1319 148.633 33.9246C148.1 34.7173 147.888 35.6823 148.038 36.6254C148.2 37.5027 148.669 38.2934 149.363 38.8544C150.057 39.4153 150.928 39.7095 151.82 39.6838C152.711 39.658 153.564 39.314 154.224 38.7139C154.884 38.1139 155.308 37.2974 155.418 36.4122V36.2646L158.76 35.5881C158.856 35.5649 158.955 35.5633 159.052 35.5835C159.149 35.6037 159.239 35.6452 159.318 35.7048C159.396 35.7645 159.461 35.8409 159.506 35.9285C159.551 36.0161 159.576 36.1127 159.58 36.2113V36.6787C159.581 36.7343 159.601 36.788 159.637 36.8305C159.672 36.8731 159.722 36.902 159.777 36.9124C159.956 36.9381 160.127 37.0042 160.277 37.1058C160.427 37.2074 160.551 37.3417 160.642 37.4987C160.663 37.5429 160.698 37.5793 160.742 37.6028C160.785 37.6263 160.835 37.6358 160.884 37.6299L161.072 37.5889C161.12 37.5766 161.163 37.5492 161.194 37.5108C161.225 37.4724 161.242 37.425 161.244 37.3757C161.27 37.1205 161.377 36.88 161.548 36.6892C161.719 36.4984 161.947 36.367 162.198 36.314C162.449 36.2611 162.711 36.2893 162.944 36.3947C163.178 36.5 163.373 36.677 163.499 36.9001C163.52 36.944 163.555 36.9802 163.597 37.0038C163.64 37.0273 163.689 37.0369 163.737 37.0313L163.934 36.9903C163.981 36.9772 164.023 36.9495 164.053 36.9112C164.083 36.8728 164.1 36.8259 164.102 36.7771C164.122 36.5971 164.184 36.4241 164.281 36.2713C164.378 36.1185 164.509 35.99 164.664 35.8956C164.709 35.863 164.742 35.8163 164.758 35.7628C164.773 35.7093 164.77 35.6521 164.75 35.6004L164.582 35.1658C164.547 35.0762 164.532 34.9801 164.538 34.8842C164.545 34.7883 164.572 34.6949 164.618 34.6106C164.664 34.5262 164.728 34.453 164.805 34.3959C164.883 34.3388 164.971 34.2993 165.066 34.2802L165.316 34.2269C165.451 34.198 165.579 34.1422 165.692 34.0626C165.806 33.9831 165.902 33.8815 165.975 33.764C166.048 33.6465 166.097 33.5155 166.118 33.3787C166.139 33.242 166.133 33.1024 166.099 32.9682C166.019 32.7102 165.844 32.4919 165.61 32.3573C165.376 32.2227 165.099 32.1817 164.836 32.2425L155.07 34.272L154.996 34.1449C154.604 33.4464 153.994 32.8945 153.261 32.5728C152.527 32.251 151.708 32.1768 150.929 32.3614L150.908 32.3532ZM151.728 38.618C151.219 38.6237 150.719 38.4812 150.289 38.208C149.781 37.8742 149.404 37.3744 149.223 36.7938C149.042 36.2132 149.067 35.5878 149.296 35.0241C149.524 34.4604 149.941 33.9934 150.475 33.7027C151.009 33.4119 151.628 33.3155 152.225 33.4297C152.823 33.544 153.362 33.8619 153.751 34.3292C154.14 34.7966 154.355 35.3845 154.36 35.9927C154.364 36.6008 154.157 37.1917 153.774 37.6644C153.392 38.1372 152.857 38.4626 152.261 38.5852C152.087 38.6168 151.91 38.6305 151.732 38.6262L151.728 38.618ZM151.728 33.7759C151.576 33.7767 151.423 33.7918 151.273 33.821C150.988 33.8818 150.717 33.9983 150.476 34.1638C150.235 34.3294 150.03 34.5406 149.871 34.7856C149.712 35.0306 149.603 35.3045 149.55 35.5917C149.497 35.8789 149.501 36.1737 149.561 36.4593C149.622 36.745 149.739 37.0158 149.904 37.2564C150.07 37.497 150.281 37.7027 150.526 37.8616C150.771 38.0206 151.045 38.1297 151.332 38.1828C151.619 38.2359 151.914 38.2319 152.2 38.1711C152.629 38.0818 153.021 37.8676 153.329 37.5555C153.636 37.2433 153.844 36.8472 153.926 36.417C154.009 35.9869 153.962 35.5419 153.792 35.1383C153.622 34.7347 153.336 34.3904 152.971 34.149C152.608 33.9076 152.181 33.7805 151.745 33.7841L151.728 33.7759Z" fill="white"/>
<path opacity="0.6" d="M145.025 50.3562C147.71 50.3562 149.887 48.9684 149.887 47.2566C149.887 45.5447 147.71 44.157 145.025 44.157C142.339 44.157 140.162 45.5447 140.162 47.2566C140.162 48.9684 142.339 50.3562 145.025 50.3562Z" fill="#12518B"/>
<path opacity="0.3" d="M137.288 51.6272C138.391 51.6272 139.285 51.0582 139.285 50.3562C139.285 49.6543 138.391 49.0852 137.288 49.0852C136.185 49.0852 135.292 49.6543 135.292 50.3562C135.292 51.0582 136.185 51.6272 137.288 51.6272Z" fill="#12518B"/>
</g>
<defs>
<clipPath id="clip0_1_60">
<rect width="205" height="205" fill="white" transform="translate(0.5)"/>
</clipPath>
</defs>
</svg>
