<svg width="24" height="25" viewBox="0 0 24 25" fill="none" xmlns="http://www.w3.org/2000/svg">
<path d="M6.87985 10.4327H6.13745C5.12433 10.3961 4.1145 10.5681 3.17062 10.938C2.22675 11.3079 1.36897 11.8678 0.650513 12.5831L0.445713 12.822V19.8876H3.92731V15.877L4.39665 15.3479L4.60998 15.1004C5.72096 13.9591 7.10408 13.1192 8.62918 12.6599C7.86561 12.0789 7.26341 11.3122 6.87985 10.4327Z" fill="#00AF50"/>
<path d="M23.3836 12.5577C22.6651 11.8425 21.8073 11.2825 20.8634 10.9126C19.9196 10.5427 18.9097 10.3707 17.8966 10.4073C17.5859 10.4082 17.2754 10.4253 16.9665 10.4585C16.5757 11.2836 15.99 12.0011 15.2598 12.5492C16.888 12.9996 18.3629 13.8845 19.5265 15.1092L19.7398 15.3481L20.2006 15.8772V19.8964H23.5628V12.7966L23.3836 12.5577Z" fill="#00AF50"/>
<path d="M6.11207 8.76889H6.3766C6.25369 7.71352 6.43887 6.64514 6.90979 5.6927C7.38071 4.74026 8.11724 3.94448 9.03047 3.40142C8.69943 2.89569 8.24273 2.48461 7.70508 2.20841C7.16743 1.93222 6.56727 1.8004 5.96336 1.82585C5.35946 1.8513 4.77252 2.03315 4.26001 2.35359C3.74751 2.67404 3.32701 3.12209 3.03969 3.65388C2.75237 4.18567 2.60809 4.78295 2.62097 5.38726C2.63385 5.99156 2.80345 6.58216 3.11316 7.10122C3.42288 7.62028 3.86208 8.05001 4.38778 8.34833C4.91347 8.64665 5.50763 8.80332 6.11207 8.80302V8.76889Z" fill="#00AF50"/>
<path d="M17.4868 8.12876C17.4971 8.32489 17.4971 8.52143 17.4868 8.71756C17.6505 8.74352 17.8159 8.75778 17.9817 8.76023H18.1438C18.7456 8.72814 19.3288 8.54078 19.8367 8.21638C20.3446 7.89199 20.7598 7.44161 21.042 6.90911C21.3241 6.3766 21.4636 5.78011 21.4468 5.17771C21.43 4.5753 21.2575 3.98752 20.9461 3.47157C20.6346 2.95563 20.195 2.5291 19.6698 2.23353C19.1446 1.93796 18.5518 1.78341 17.9492 1.78492C17.3466 1.78644 16.7546 1.94397 16.2309 2.24218C15.7072 2.54039 15.2697 2.96912 14.9609 3.48663C15.7332 3.99089 16.3683 4.67899 16.8092 5.4892C17.25 6.29941 17.4828 7.20639 17.4868 8.12876Z" fill="#00AF50"/>
<path d="M11.8892 11.9517C13.9959 11.9517 15.7036 10.2439 15.7036 8.13728C15.7036 6.03064 13.9959 4.32288 11.8892 4.32288C9.78259 4.32288 8.07482 6.03064 8.07482 8.13728C8.07482 10.2439 9.78259 11.9517 11.8892 11.9517Z" fill="#00AF50"/>
<path d="M12.0938 13.9827C10.9794 13.9378 9.86742 14.1187 8.82475 14.5146C7.78207 14.9106 6.83028 15.5134 6.02663 16.2867L5.8133 16.5257V21.9273C5.81663 22.1032 5.85459 22.2768 5.92501 22.4381C5.99544 22.5993 6.09694 22.7452 6.22373 22.8672C6.35052 22.9892 6.50011 23.0851 6.66396 23.1493C6.8278 23.2135 7.00269 23.2448 7.17863 23.2414H16.9834C17.1594 23.2448 17.3343 23.2135 17.4981 23.1493C17.662 23.0851 17.8115 22.9892 17.9383 22.8672C18.0651 22.7452 18.1666 22.5993 18.2371 22.4381C18.3075 22.2768 18.3454 22.1032 18.3488 21.9273V16.5427L18.144 16.2867C17.3455 15.511 16.397 14.9065 15.3567 14.5103C14.3163 14.1141 13.206 13.9346 12.0938 13.9827Z" fill="#00AF50"/>
</svg>
