<svg id="Component_5_2" data-name="Component 5 – 2" xmlns="http://www.w3.org/2000/svg" width="27" height="27.001" viewBox="0 0 27 27.001">
  <g id="Xnix_Line_Home_6" data-name="Xnix Line Home 6">
    <g id="Vector-93">
      <g id="Vector-94">
        <path id="Path_9" data-name="Path 9" d="M506.333,427.543a7.091,7.091,0,0,1-6.936-7.237v-8.059a8.99,8.99,0,0,1,3.527-7.125l5.442-3.308a8.7,8.7,0,0,1,9.063,0l5.325,3.228a9.028,9.028,0,0,1,3.639,7.2v8.089a7.079,7.079,0,0,1-6.9,7.207Zm6.563-24.389a6.1,6.1,0,0,0-3.175.893l-5.33,3.232a6.332,6.332,0,0,0-2.382,4.965v8.093a4.475,4.475,0,0,0,4.355,4.594h13.1a4.462,4.462,0,0,0,4.319-4.563v-8.122a6.361,6.361,0,0,0-2.494-5.045l-5.213-3.152A6.115,6.115,0,0,0,512.9,403.154Z" transform="translate(-499.395 -400.542)" fill="#bcbcbc"/>
      </g>
      <g id="Vector-2-7" transform="translate(8.656 17.89)">
        <path id="Path_10" data-name="Path 10" d="M532.165,463.529a5.743,5.743,0,0,1-4.6-2.322,1.251,1.251,0,1,1,2.014-1.486,3.217,3.217,0,0,0,5.174,0,1.251,1.251,0,1,1,2.014,1.486A5.743,5.743,0,0,1,532.165,463.529Z" transform="translate(-527.319 -459.213)" fill="#bcbcbc"/>
      </g>
    </g>
  </g>
</svg>
