<svg width="35" height="35" viewBox="0 0 35 35" fill="none" xmlns="http://www.w3.org/2000/svg">
<path d="M27.7083 24.7916V27.7083H10.2083V24.7916C10.2083 24.7916 10.2083 18.9583 18.9583 18.9583C27.7083 18.9583 27.7083 24.7916 27.7083 24.7916ZM23.3333 11.6666C23.3333 10.8013 23.0767 9.95547 22.596 9.23601C22.1153 8.51654 21.432 7.95579 20.6326 7.62466C19.8331 7.29352 18.9535 7.20688 18.1048 7.37569C17.2561 7.5445 16.4766 7.96118 15.8647 8.57304C15.2529 9.18489 14.8362 9.96444 14.6674 10.8131C14.4986 11.6618 14.5852 12.5414 14.9164 13.3409C15.2475 14.1403 15.8082 14.8236 16.5277 15.3043C17.2472 15.785 18.093 16.0416 18.9583 16.0416C20.1187 16.0416 21.2315 15.5807 22.0519 14.7602C22.8724 13.9397 23.3333 12.827 23.3333 11.6666ZM28 19.0458C28.7972 19.7812 29.4399 20.6681 29.8906 21.6546C30.3413 22.6411 30.5909 23.7076 30.625 24.7916V27.7083H35V24.7916C35 24.7916 35 19.7604 28 19.0458ZM26.25 7.29163C25.8094 7.29189 25.3715 7.36077 24.9521 7.49579C25.8053 8.71929 26.2627 10.175 26.2627 11.6666C26.2627 13.1582 25.8053 14.614 24.9521 15.8375C25.3715 15.9725 25.8094 16.0414 26.25 16.0416C27.4103 16.0416 28.5231 15.5807 29.3436 14.7602C30.1641 13.9397 30.625 12.827 30.625 11.6666C30.625 10.5063 30.1641 9.39351 29.3436 8.57304C28.5231 7.75256 27.4103 7.29163 26.25 7.29163ZM11.6667 14.5833H7.29167V10.2083H4.375V14.5833H0V17.5H4.375V21.875H7.29167V17.5H11.6667V14.5833Z" fill="#00AF50"/>
</svg>
