<svg width="20" height="20" viewBox="0 0 20 20" fill="none" xmlns="http://www.w3.org/2000/svg">
<path d="M10.4916 10.8333L8.57496 12.7416C8.49685 12.8191 8.43486 12.9112 8.39255 13.0128C8.35024 13.1143 8.32846 13.2232 8.32846 13.3333C8.32846 13.4433 8.35024 13.5522 8.39255 13.6537C8.43486 13.7553 8.49685 13.8475 8.57496 13.9249C8.65243 14.003 8.7446 14.065 8.84615 14.1073C8.9477 14.1496 9.05662 14.1714 9.16663 14.1714C9.27664 14.1714 9.38556 14.1496 9.48711 14.1073C9.58866 14.065 9.68082 14.003 9.75829 13.9249L13.0916 10.5916C13.1675 10.5123 13.227 10.4189 13.2666 10.3166C13.35 10.1137 13.35 9.88614 13.2666 9.68325C13.227 9.58096 13.1675 9.48751 13.0916 9.40825L9.75829 6.07492C9.68059 5.99722 9.58835 5.93559 9.48683 5.89354C9.38532 5.85149 9.27651 5.82984 9.16663 5.82984C9.05674 5.82984 8.94794 5.85149 8.84642 5.89354C8.7449 5.93559 8.65266 5.99722 8.57496 6.07492C8.49726 6.15262 8.43563 6.24486 8.39358 6.34638C8.35153 6.4479 8.32988 6.5567 8.32988 6.66659C8.32988 6.77647 8.35153 6.88528 8.39358 6.98679C8.43563 7.08831 8.49726 7.18055 8.57496 7.25825L10.4916 9.16659H2.49996C2.27895 9.16659 2.06698 9.25438 1.9107 9.41067C1.75442 9.56695 1.66663 9.77891 1.66663 9.99992C1.66663 10.2209 1.75442 10.4329 1.9107 10.5892C2.06698 10.7455 2.27895 10.8333 2.49996 10.8333H10.4916ZM9.99996 1.66659C8.44254 1.65963 6.91433 2.08926 5.58868 2.90675C4.26304 3.72423 3.193 4.89684 2.49996 6.29159C2.4005 6.4905 2.38414 6.72077 2.45446 6.93175C2.52479 7.14273 2.67605 7.31713 2.87496 7.41659C3.07387 7.51604 3.30415 7.53241 3.51512 7.46208C3.7261 7.39176 3.9005 7.2405 3.99996 7.04159C4.52679 5.97769 5.32815 5.07377 6.32125 4.42324C7.31435 3.77272 8.46314 3.39918 9.64892 3.34125C10.8347 3.28331 12.0144 3.54307 13.0662 4.09368C14.118 4.64429 15.0037 5.46578 15.6317 6.47325C16.2598 7.48072 16.6074 8.63763 16.6386 9.82441C16.6699 11.0112 16.3837 12.1848 15.8096 13.2239C15.2354 14.2631 14.3942 15.13 13.3729 15.7353C12.3516 16.3405 11.1871 16.662 9.99996 16.6666C8.75736 16.672 7.53842 16.3269 6.48304 15.671C5.42765 15.015 4.57859 14.0748 4.03329 12.9583C3.93384 12.7593 3.75944 12.6081 3.54846 12.5378C3.33748 12.4674 3.10721 12.4838 2.90829 12.5833C2.70938 12.6827 2.55812 12.8571 2.4878 13.0681C2.41747 13.2791 2.43384 13.5093 2.53329 13.7083C3.19398 15.0378 4.19789 16.1668 5.44119 16.9783C6.68448 17.7898 8.122 18.2544 9.60506 18.3241C11.0881 18.3937 12.5629 18.0659 13.8767 17.3745C15.1906 16.6831 16.2959 15.6532 17.0784 14.3914C17.8608 13.1296 18.2919 11.6817 18.327 10.1974C18.3622 8.71314 18.0002 7.24641 17.2785 5.94895C16.5568 4.65148 15.5015 3.57039 14.2219 2.81751C12.9422 2.06462 11.4847 1.66728 9.99996 1.66659Z" fill="#484C52"/>
</svg>
